<svg width="530" height="530" viewBox="0 0 530 530" fill="none" xmlns="http://www.w3.org/2000/svg">
<path fill-rule="evenodd" clip-rule="evenodd" d="M42.9657 42.9658C67.3295 18.6019 101.991 0 140 0H440C462.092 0 480 17.9086 480 40.0001C480 62.0915 462.092 80.0001 440 80.0001H140C128.009 80.0001 112.67 86.3982 99.5344 99.5344C86.3982 112.671 80.0001 128.009 80.0001 140V390C80.0001 401.991 86.3982 417.33 99.5343 430.466C112.67 443.602 128.009 450 140 450H390C409.066 450 425.846 445.112 436.562 437.968C446.093 431.614 450 424.484 450 415C450 405.516 446.093 398.386 436.562 392.032C425.846 384.888 409.066 380 390 380H290C259.067 380 225.846 372.388 199.062 354.532C171.093 335.886 150 305.516 150 265C150 224.484 171.093 194.114 199.062 175.468C225.846 157.612 259.067 150 290 150H440C462.092 150 480 167.909 480 190C480 212.091 462.092 230 440 230H290C270.934 230 254.155 234.888 243.438 242.032C233.907 248.386 230 255.516 230 265C230 274.484 233.907 281.614 243.438 287.968C254.155 295.112 270.934 300 290 300H390C420.934 300 454.154 307.612 480.938 325.468C508.907 344.114 530 374.484 530 415C530 455.516 508.907 485.886 480.938 504.532C454.154 522.388 420.934 530 390 530H140C101.991 530 67.3295 511.398 42.9657 487.034C18.6019 462.671 0 428.009 0 390V140C0 101.991 18.6019 67.3296 42.9657 42.9658Z" fill="#1A4784"/>
</svg>
